<mxfile host="app.diagrams.net" modified="2023-07-07T01:29:22.819Z" agent="Mozilla/5.0 (Windows NT 10.0; Win64; x64; rv:109.0) Gecko/20100101 Firefox/115.0" etag="Rnp169dVV0BdkUvi9vqU" version="21.6.1" type="device">
  <diagram name="Page-1" id="iv4Zartggr-0gQ97pvV8">
    <mxGraphModel dx="1034" dy="461" grid="1" gridSize="10" guides="1" tooltips="1" connect="1" arrows="1" fold="1" page="1" pageScale="1" pageWidth="1100" pageHeight="850" math="0" shadow="0">
      <root>
        <mxCell id="0" />
        <mxCell id="1" parent="0" />
        <mxCell id="f-_Gn7m5qd6hZrsT1-k3-8" style="edgeStyle=orthogonalEdgeStyle;rounded=0;orthogonalLoop=1;jettySize=auto;html=1;exitX=1;exitY=0.5;exitDx=0;exitDy=0;entryX=0;entryY=0.5;entryDx=0;entryDy=0;" edge="1" parent="1" source="f-_Gn7m5qd6hZrsT1-k3-1" target="f-_Gn7m5qd6hZrsT1-k3-2">
          <mxGeometry relative="1" as="geometry" />
        </mxCell>
        <mxCell id="f-_Gn7m5qd6hZrsT1-k3-15" value="r_en" style="edgeLabel;html=1;align=center;verticalAlign=middle;resizable=0;points=[];" vertex="1" connectable="0" parent="f-_Gn7m5qd6hZrsT1-k3-8">
          <mxGeometry x="-0.2909" y="-2" relative="1" as="geometry">
            <mxPoint as="offset" />
          </mxGeometry>
        </mxCell>
        <mxCell id="f-_Gn7m5qd6hZrsT1-k3-1" value="IDLE" style="ellipse;whiteSpace=wrap;html=1;aspect=fixed;" vertex="1" parent="1">
          <mxGeometry x="50" y="170" width="80" height="80" as="geometry" />
        </mxCell>
        <mxCell id="f-_Gn7m5qd6hZrsT1-k3-9" style="edgeStyle=orthogonalEdgeStyle;rounded=0;orthogonalLoop=1;jettySize=auto;html=1;exitX=1;exitY=0.5;exitDx=0;exitDy=0;" edge="1" parent="1" source="f-_Gn7m5qd6hZrsT1-k3-2" target="f-_Gn7m5qd6hZrsT1-k3-3">
          <mxGeometry relative="1" as="geometry" />
        </mxCell>
        <mxCell id="f-_Gn7m5qd6hZrsT1-k3-16" value="(|reg_num)" style="edgeLabel;html=1;align=center;verticalAlign=middle;resizable=0;points=[];" vertex="1" connectable="0" parent="f-_Gn7m5qd6hZrsT1-k3-9">
          <mxGeometry x="-0.1" relative="1" as="geometry">
            <mxPoint as="offset" />
          </mxGeometry>
        </mxCell>
        <mxCell id="f-_Gn7m5qd6hZrsT1-k3-2" value="EN" style="ellipse;whiteSpace=wrap;html=1;aspect=fixed;" vertex="1" parent="1">
          <mxGeometry x="240" y="170" width="80" height="80" as="geometry" />
        </mxCell>
        <mxCell id="f-_Gn7m5qd6hZrsT1-k3-10" style="edgeStyle=orthogonalEdgeStyle;rounded=0;orthogonalLoop=1;jettySize=auto;html=1;exitX=1;exitY=0.5;exitDx=0;exitDy=0;entryX=0;entryY=0.5;entryDx=0;entryDy=0;" edge="1" parent="1" source="f-_Gn7m5qd6hZrsT1-k3-3" target="f-_Gn7m5qd6hZrsT1-k3-4">
          <mxGeometry relative="1" as="geometry" />
        </mxCell>
        <mxCell id="f-_Gn7m5qd6hZrsT1-k3-3" value="REG1" style="ellipse;whiteSpace=wrap;html=1;aspect=fixed;" vertex="1" parent="1">
          <mxGeometry x="420" y="170" width="80" height="80" as="geometry" />
        </mxCell>
        <mxCell id="f-_Gn7m5qd6hZrsT1-k3-11" style="edgeStyle=orthogonalEdgeStyle;rounded=0;orthogonalLoop=1;jettySize=auto;html=1;exitX=0.5;exitY=1;exitDx=0;exitDy=0;entryX=1;entryY=0.5;entryDx=0;entryDy=0;" edge="1" parent="1" source="f-_Gn7m5qd6hZrsT1-k3-4" target="f-_Gn7m5qd6hZrsT1-k3-5">
          <mxGeometry relative="1" as="geometry" />
        </mxCell>
        <mxCell id="f-_Gn7m5qd6hZrsT1-k3-17" value="(|reg_num)" style="edgeLabel;html=1;align=center;verticalAlign=middle;resizable=0;points=[];" vertex="1" connectable="0" parent="f-_Gn7m5qd6hZrsT1-k3-11">
          <mxGeometry x="-0.3111" y="-3" relative="1" as="geometry">
            <mxPoint as="offset" />
          </mxGeometry>
        </mxCell>
        <mxCell id="f-_Gn7m5qd6hZrsT1-k3-4" value="IDLE2" style="ellipse;whiteSpace=wrap;html=1;aspect=fixed;" vertex="1" parent="1">
          <mxGeometry x="620" y="170" width="80" height="80" as="geometry" />
        </mxCell>
        <mxCell id="f-_Gn7m5qd6hZrsT1-k3-12" style="edgeStyle=orthogonalEdgeStyle;rounded=0;orthogonalLoop=1;jettySize=auto;html=1;exitX=0;exitY=0.5;exitDx=0;exitDy=0;" edge="1" parent="1" source="f-_Gn7m5qd6hZrsT1-k3-5" target="f-_Gn7m5qd6hZrsT1-k3-6">
          <mxGeometry relative="1" as="geometry" />
        </mxCell>
        <mxCell id="f-_Gn7m5qd6hZrsT1-k3-5" value="REG2" style="ellipse;whiteSpace=wrap;html=1;aspect=fixed;" vertex="1" parent="1">
          <mxGeometry x="520" y="330" width="80" height="80" as="geometry" />
        </mxCell>
        <mxCell id="f-_Gn7m5qd6hZrsT1-k3-13" style="edgeStyle=orthogonalEdgeStyle;rounded=0;orthogonalLoop=1;jettySize=auto;html=1;exitX=0;exitY=0.5;exitDx=0;exitDy=0;" edge="1" parent="1" source="f-_Gn7m5qd6hZrsT1-k3-6" target="f-_Gn7m5qd6hZrsT1-k3-7">
          <mxGeometry relative="1" as="geometry" />
        </mxCell>
        <mxCell id="f-_Gn7m5qd6hZrsT1-k3-18" value="(|opcode)" style="edgeLabel;html=1;align=center;verticalAlign=middle;resizable=0;points=[];" vertex="1" connectable="0" parent="f-_Gn7m5qd6hZrsT1-k3-13">
          <mxGeometry x="0.4182" y="-1" relative="1" as="geometry">
            <mxPoint x="28" y="1" as="offset" />
          </mxGeometry>
        </mxCell>
        <mxCell id="f-_Gn7m5qd6hZrsT1-k3-6" value="IDLE3" style="ellipse;whiteSpace=wrap;html=1;aspect=fixed;" vertex="1" parent="1">
          <mxGeometry x="330" y="330" width="80" height="80" as="geometry" />
        </mxCell>
        <mxCell id="f-_Gn7m5qd6hZrsT1-k3-14" style="edgeStyle=orthogonalEdgeStyle;rounded=0;orthogonalLoop=1;jettySize=auto;html=1;exitX=0;exitY=0.5;exitDx=0;exitDy=0;entryX=0.5;entryY=1;entryDx=0;entryDy=0;" edge="1" parent="1" source="f-_Gn7m5qd6hZrsT1-k3-7" target="f-_Gn7m5qd6hZrsT1-k3-1">
          <mxGeometry relative="1" as="geometry" />
        </mxCell>
        <mxCell id="f-_Gn7m5qd6hZrsT1-k3-7" value="RESULT" style="ellipse;whiteSpace=wrap;html=1;aspect=fixed;" vertex="1" parent="1">
          <mxGeometry x="140" y="330" width="80" height="80" as="geometry" />
        </mxCell>
      </root>
    </mxGraphModel>
  </diagram>
</mxfile>
